<?xml version="1.0" standalone="no"?>
<!DOCTYPE svg PUBLIC "-//W3C//DTD SVG 1.1//EN" "http://www.w3.org/Graphics/SVG/1.1/DTD/svg11.dtd">
<svg xmlns="http://www.w3.org/2000/svg" xmlns:xlink="http://www.w3.org/1999/xlink" id="Layer_2" viewBox="0 0 907.09 240.95" width="907.0900268554688" height="240.9499969482422"><defs><style>.cls-1{clip-path:url(#clippath);}.cls-2{fill:none;}.cls-2,.cls-3,.cls-4,.cls-5,.cls-6,.cls-7,.cls-8{stroke-width:0px;}.cls-3{fill:url(#linear-gradient);}.cls-4{fill:#1d1d1b;}.cls-9{clip-path:url(#clippath-1);}.cls-10{clip-path:url(#clippath-4);}.cls-11{clip-path:url(#clippath-3);}.cls-12{clip-path:url(#clippath-2);}.cls-13{clip-path:url(#clippath-5);}.cls-5{fill:url(#linear-gradient-4);}.cls-6{fill:url(#linear-gradient-2);}.cls-7{fill:url(#linear-gradient-3);}.cls-8{fill:#fff;}</style><clipPath id="clippath"><rect class="cls-2" width="907.09" height="240.95"/></clipPath><clipPath id="clippath-1"><rect class="cls-2" width="907.09" height="240.95"/></clipPath><clipPath id="clippath-2"><path class="cls-2" d="M309.71,72.09c-.85.04-1.8.07-2.84.11-1.05.04-2.14.06-3.29.08-1.15.02-2.24.04-3.27.05-1.03.02-1.94.04-2.74.05-.8.02-1.37.03-1.73.03h-30.34c-.35,0-.93,0-1.73-.03-.8-.02-1.71-.03-2.74-.05-1.03-.02-2.12-.04-3.27-.05-1.15-.02-2.25-.04-3.29-.08-1.04-.03-1.99-.07-2.84-.11-.85-.04-1.49-.07-1.91-.11l-1.54,8.61c2.23-.64,4.76-1.22,7.6-1.75,2.44-.43,5.35-.82,8.71-1.2,3.36-.37,7.14-.56,11.32-.56v50.74c0,3.01-.04,5.64-.11,7.89-.07,2.25-.18,4.19-.32,5.82-.14,1.63-.3,2.99-.48,4.09-.18,1.1-.37,2.02-.58,2.76v.21h12.7v-.21c-.21-.74-.42-1.67-.61-2.76s-.35-2.46-.48-4.09c-.12-1.63-.23-3.57-.32-5.82-.09-2.25-.13-4.88-.13-7.89v-50.74c4.18,0,7.95.18,11.32.56,3.36.37,6.27.77,8.71,1.2,2.83.53,5.38,1.12,7.65,1.75l-1.54-8.61c-.43.04-1.06.07-1.91.11M204.51,112.18c-.99-.09-1.97-.24-2.92-.45v-35.18c.74-.28,1.84-.55,3.29-.8,1.45-.25,3.4-.37,5.85-.37s4.52.42,6.32,1.25c1.81.83,3.3,2,4.49,3.51,1.19,1.51,2.08,3.34,2.68,5.5.6,2.16.9,4.57.9,7.23,0,3.26-.43,6.1-1.28,8.53-.85,2.43-2.05,4.46-3.59,6.08-1.54,1.63-3.41,2.84-5.61,3.64-2.2.8-4.62,1.2-7.28,1.2-.92,0-1.88-.04-2.87-.13M203.05,72.28c-2.36.34-4.22.51-5.61.51-.89,0-1.74,0-2.58-.03-.83-.02-1.59-.06-2.26-.13l-2.23-.21v.21c.21.74.42,1.67.61,2.79.19,1.12.35,2.49.48,4.12.12,1.63.23,3.57.32,5.82.09,2.25.13,4.88.13,7.89v34.59c0,3.05-.05,5.69-.13,7.92-.09,2.23-.2,4.16-.32,5.79-.12,1.63-.28,2.99-.48,4.09-.19,1.1-.4,2.02-.61,2.76v.21h12.75v-.21c-.21-.74-.42-1.67-.61-2.76-.19-1.1-.35-2.46-.48-4.09-.12-1.63-.23-3.57-.32-5.82-.09-2.25-.13-4.88-.13-7.89v-11.96c1.03.18,2.05.3,3.06.37,1.01.07,2.01.11,3,.11.85,0,1.68-.03,2.5-.08.81-.05,1.63-.11,2.44-.19l18.81,26.51c.78,1.1,1.46,2.21,2.05,3.32.58,1.12.93,2.01,1.04,2.68h15.36v-.21c-.71-.25-1.4-.59-2.07-1.04-.67-.44-1.37-1.01-2.1-1.7-.73-.69-1.49-1.51-2.28-2.47-.8-.96-1.66-2.09-2.58-3.4l-18.65-26.2c2.05-.92,3.91-2.06,5.58-3.43,1.67-1.36,3.09-2.93,4.28-4.7,1.19-1.77,2.11-3.75,2.76-5.93.65-2.18.98-4.54.98-7.09,0-3.26-.59-6.17-1.78-8.74-1.19-2.57-2.84-4.74-4.97-6.51-2.13-1.77-4.63-3.12-7.52-4.04-2.89-.92-6.03-1.38-9.43-1.38-3.65,0-6.65.17-9.01.5M133.98,84.95l14.93,33.74c-1.56.04-3.29.06-5.21.08-1.91.02-3.9.04-5.98.05-2.07.02-4.19.04-6.35.05-2.16.02-4.27.03-6.32.03h-5.74l14.66-33.95ZM134.09,70.82l-30.45,67.53c-1.13,2.59-2.18,4.74-3.13,6.46-.96,1.72-1.76,2.91-2.39,3.59v.21h10.84v-.21c-.07-.11-.14-.31-.21-.61-.07-.3-.11-.68-.11-1.14,0-1.59.3-3.17.9-4.73.6-1.56,1.17-2.99,1.7-4.3l6.11-14.03c2.09-.07,4.44-.11,7.04-.11h18.78c3.29,0,5.93.04,7.92.11l6.43,14.45c.85,1.98,1.42,3.64,1.73,4.97.3,1.33.45,2.54.45,3.64,0,.28-.02.6-.05.96-.04.35-.09.62-.16.8v.21h14.56v-.21c-.18-.21-.51-.71-1.01-1.49-.5-.78-1.06-1.74-1.7-2.87-.64-1.13-1.32-2.42-2.05-3.85-.73-1.43-1.43-2.91-2.1-4.44l-28.85-64.93h-4.25Z"/></clipPath><linearGradient id="linear-gradient" x1="0" y1="241.13" x2="1" y2="241.13" gradientTransform="translate(98.12 51963.92) scale(215.05 -215.05)" gradientUnits="userSpaceOnUse"><stop offset="0" stop-color="#95622c"/><stop offset=".22" stop-color="#c59f4f"/><stop offset=".34" stop-color="#d0b36e"/><stop offset=".5" stop-color="#dfcc94"/><stop offset=".6" stop-color="#d6bc7c"/><stop offset=".75" stop-color="#c59f4f"/><stop offset=".9" stop-color="#a97b3a"/><stop offset="1" stop-color="#95622c"/></linearGradient><clipPath id="clippath-3"><path class="cls-2" d="M80.36,74.59v.05c.05.16.09.37.13.61.04.24.08.54.11.91.03.36.05.79.07,1.29.02.5.03,1.08.03,1.74v2.89c-.34.01-.75.03-1.22.05-.47.02-.98.03-1.52.04-.54.01-1.1.02-1.69.03s-1.15.01-1.72.02c-.56,0-1.1,0-1.62,0s-.98-.01-1.38-.03v-3c0-.66.01-1.24.03-1.74.02-.5.04-.93.07-1.29.03-.36.06-.67.11-.91.04-.24.09-.45.14-.61v-.05h-2.81v.05c.05.16.09.37.14.61.04.24.08.54.11.91.03.36.06.79.07,1.29.01.5.02,1.08.02,1.74v7.63c0,.67,0,1.25-.02,1.74-.02.5-.04.92-.07,1.28-.03.36-.07.66-.11.9-.04.24-.09.45-.14.61v.05h2.81v-.05c-.05-.16-.09-.37-.14-.61-.04-.24-.08-.54-.11-.9-.03-.36-.05-.79-.07-1.28-.02-.5-.03-1.08-.03-1.74v-3.48c.38-.01.83-.03,1.35-.04.52,0,1.06,0,1.63,0,.57,0,1.15,0,1.75.01.6,0,1.17.01,1.72.02.55,0,1.06.01,1.53.02.47,0,.86.01,1.17.02v3.46c0,.67,0,1.25-.03,1.74-.02.5-.04.92-.07,1.28-.03.36-.06.66-.11.9-.04.24-.09.45-.13.61v.05h2.81v-.05c-.05-.16-.09-.37-.13-.61-.04-.24-.08-.54-.11-.9-.03-.36-.06-.79-.07-1.28-.02-.5-.02-1.08-.02-1.74v-7.63c0-.66,0-1.24.02-1.74.02-.5.04-.93.07-1.29.03-.36.07-.67.11-.91.04-.24.09-.45.13-.61v-.05h-2.81ZM60.63,74.52c-.19,0-.4.02-.63.02-.23,0-.47.01-.73.02-.25,0-.49,0-.72.01-.23,0-.43,0-.6.01-.18,0-.3,0-.38,0h-6.69c-.08,0-.2,0-.38,0-.18,0-.38,0-.6-.01-.23,0-.47,0-.72-.01-.25,0-.5-.01-.73-.02-.23,0-.44-.02-.63-.02-.19,0-.33-.02-.42-.02l-.34,1.9c.49-.14,1.05-.27,1.68-.39.54-.09,1.18-.18,1.92-.26s1.57-.12,2.5-.12v11.19c0,.67,0,1.25-.02,1.74-.02.5-.04.92-.07,1.28-.03.36-.07.66-.11.9-.04.24-.08.45-.13.61v.05h2.8v-.05c-.05-.16-.09-.37-.14-.61-.04-.24-.08-.54-.1-.9-.03-.36-.05-.79-.07-1.28-.02-.5-.03-1.08-.03-1.74v-11.19c.92,0,1.75.04,2.49.12.74.08,1.38.17,1.92.26.62.12,1.19.25,1.69.39l-.34-1.9c-.09,0-.24.02-.42.02M100.15,74.5c-.57.02-1.26.04-2.06.05-.81.01-1.69.02-2.65.03-.96,0-1.93.01-2.91.01v.05c.05.16.09.37.13.61.04.24.08.54.11.91.03.36.05.79.07,1.29s.02,1.08.02,1.74v7.63c0,.67,0,1.25-.02,1.74-.02.5-.04.92-.07,1.28-.03.36-.07.66-.11.9-.04.24-.09.45-.13.61v.05h5.06c.08,0,.21,0,.38,0,.18,0,.38,0,.6.01.23,0,.47,0,.72.01.25,0,.5.01.73.02.23,0,.44.01.63.02.19,0,.33.02.42.02l.34-1.9c-.56.15-1.17.28-1.84.39-.58.1-1.25.19-2.03.27-.77.08-1.62.12-2.54.12v-7.35c.52,0,1.07.02,1.64.06.57.04,1.1.09,1.58.15.56.06,1.11.13,1.65.2l.36-1.7c-.41.06-.88.12-1.41.16-.45.04-1,.08-1.65.12-.65.04-1.38.06-2.18.07v-6.4c.29-.02.57-.03.86-.05.24-.02.49-.03.76-.04.26-.01.49-.02.67-.02.56,0,1.04.02,1.47.07s.79.09,1.08.13c.34.05.64.12.9.19l.57-1.56c-.2.04-.59.07-1.16.09"/></clipPath><linearGradient id="linear-gradient-2" x1="0" y1="241.1" x2="1" y2="241.1" gradientTransform="translate(47.06 13184.41) scale(54.34 -54.34)" xlink:href="#linear-gradient"/><clipPath id="clippath-4"><path class="cls-2" d="M332.14,107.84h-3.27v19.77h3.27v-8.92h7.34v-2.91h-7.34v-4.94h7.62v-2.99h-7.62ZM307.89,123.83c-1.01-.61-1.8-1.44-2.39-2.5-.58-1.05-.88-2.26-.88-3.61s.29-2.57.88-3.63c.58-1.06,1.38-1.9,2.39-2.5,1.01-.6,2.16-.9,3.46-.9s2.51.3,3.52.9c1.01.6,1.79,1.44,2.36,2.5.57,1.06.85,2.27.85,3.63s-.29,2.56-.86,3.61c-.57,1.05-1.37,1.89-2.37,2.5-1.01.61-2.17.92-3.49.92s-2.45-.31-3.46-.92M307.3,108.24c-1.25.52-2.34,1.23-3.28,2.15-.93.91-1.65,1.99-2.16,3.23-.51,1.24-.76,2.61-.76,4.09s.25,2.83.76,4.09c.51,1.26,1.22,2.35,2.15,3.28.92.92,2.01,1.64,3.26,2.16,1.25.52,2.61.78,4.08.78s2.88-.26,4.12-.78c1.24-.52,2.33-1.24,3.25-2.16.92-.92,1.64-2.01,2.15-3.28.51-1.26.76-2.63.76-4.09s-.25-2.85-.76-4.09c-.51-1.24-1.23-2.32-2.16-3.23-.93-.91-2.02-1.63-3.26-2.15-1.24-.52-2.61-.78-4.09-.78s-2.8.26-4.05.78"/></clipPath><linearGradient id="linear-gradient-3" x1="0" y1="241.21" x2="1" y2="241.21" gradientTransform="translate(301.1 9442.1) scale(38.66 -38.66)" xlink:href="#linear-gradient"/><clipPath id="clippath-5"><path class="cls-2" d="M513.14,93.65v.13c.13.46.25,1.03.36,1.71.11.68.21,1.53.3,2.55.09,1.02.15,2.23.2,3.63.04,1.39.07,3.03.07,4.89v18.49c0,2.61-.39,4.77-1.17,6.47-.78,1.7-1.8,3.05-3.06,4.05-1.26,1-2.71,1.7-4.33,2.09-1.63.4-3.28.59-4.98.59s-3.35-.2-4.98-.59c-1.63-.4-3.08-1.09-4.35-2.09-1.27-1-2.3-2.35-3.08-4.05-.78-1.7-1.17-3.86-1.17-6.47v-18.49c0-1.87.02-3.5.07-4.89.04-1.4.11-2.6.2-3.63.09-1.02.19-1.87.31-2.55.12-.68.25-1.25.38-1.71v-.13h-7.91v.13c.13.46.26,1.03.38,1.71.12.68.23,1.53.31,2.55.09,1.02.15,2.23.2,3.63.04,1.39.07,3.03.07,4.89v18.12c0,3.14.48,5.81,1.45,7.99.96,2.19,2.3,3.97,4,5.34,1.7,1.37,3.7,2.37,6,2.98,2.29.61,4.77.92,7.43.92s5.11-.32,7.35-.97c2.24-.65,4.16-1.68,5.77-3.1,1.6-1.42,2.86-3.23,3.76-5.45s1.35-4.9,1.35-8.04v-17.8c0-1.87.03-3.5.08-4.89.05-1.4.12-2.6.2-3.63.08-1.02.18-1.87.3-2.55.12-.68.25-1.25.38-1.71v-.13h-5.87ZM580.94,93.65l-20.56,38.75-20.73-38.75h-4.18c-.07.62-.17,1.53-.31,2.75-.14,1.22-.33,2.65-.54,4.3-.22,1.65-.47,3.46-.74,5.45-.28,1.99-.56,4.05-.86,6.19-.3,2.14-.61,4.32-.92,6.52-.32,2.21-.64,4.37-.95,6.48-.32,2.11-.63,4.12-.92,6.05-.3,1.92-.57,3.65-.81,5.19-.18,1.05-.42,1.93-.73,2.62-.31.69-.58,1.21-.82,1.57v.13h6.59c-.07-.35-.13-.76-.2-1.22-.04-.39-.09-.88-.13-1.45-.04-.57-.07-1.23-.07-1.98,0-.59.05-1.51.16-2.75.11-1.24.26-2.67.45-4.3.19-1.62.4-3.38.64-5.26.24-1.88.48-3.76.72-5.65.57-4.42,1.24-9.23,2.01-14.43l19.57,36.64,2.27.26,19.44-36.58,4.18,31.57c.04.35.08.68.1.97.02.3.03.59.03.87,0,.77-.05,1.43-.15,1.98-.1.55-.2.94-.31,1.19v.13h8.3v-.13c-.15-.26-.31-.6-.48-1.01-.17-.41-.34-.92-.51-1.55-.18-.63-.35-1.38-.53-2.26-.18-.88-.34-1.93-.49-3.16l-5.4-39.15h-3.13ZM680.14,93.65v.13c.13.46.25,1.03.36,1.71.11.68.21,1.53.3,2.55.09,1.02.15,2.23.2,3.63.04,1.39.07,3.03.07,4.89v21.45c0,1.87-.02,3.5-.07,4.89-.04,1.39-.11,2.6-.2,3.61-.09,1.01-.19,1.86-.3,2.54-.11.68-.23,1.25-.36,1.71v.13h7.88v-.13c-.13-.46-.26-1.03-.38-1.71-.12-.68-.22-1.53-.3-2.54-.08-1.01-.14-2.21-.2-3.61-.06-1.4-.08-3.03-.08-4.89v-21.45c0-1.87.03-3.5.08-4.89.05-1.4.12-2.6.2-3.63.08-1.02.18-1.87.3-2.55.12-.68.25-1.25.38-1.71v-.13h-7.88ZM789.07,93.65v.13c.13.46.25,1.03.36,1.71.11.68.21,1.53.3,2.55.09,1.02.15,2.23.2,3.63.04,1.39.07,3.03.07,4.89v18.49c0,2.61-.39,4.77-1.17,6.47-.78,1.7-1.8,3.05-3.07,4.05-1.26,1-2.71,1.7-4.33,2.09-1.63.4-3.29.59-4.98.59s-3.35-.2-4.98-.59c-1.62-.4-3.08-1.09-4.35-2.09-1.28-1-2.3-2.35-3.08-4.05-.78-1.7-1.17-3.86-1.17-6.47v-18.49c0-1.87.02-3.5.07-4.89.04-1.4.11-2.6.2-3.63.09-1.02.19-1.87.31-2.55.12-.68.25-1.25.38-1.71v-.13h-7.91v.13c.13.46.26,1.03.38,1.71.12.68.22,1.53.31,2.55.09,1.02.15,2.23.2,3.63.04,1.39.07,3.03.07,4.89v18.12c0,3.14.48,5.81,1.45,7.99.97,2.19,2.3,3.97,4,5.34,1.7,1.37,3.7,2.37,6,2.98,2.29.61,4.77.92,7.43.92s5.11-.32,7.35-.97c2.24-.65,4.16-1.68,5.77-3.1,1.6-1.42,2.86-3.23,3.76-5.45.9-2.22,1.35-4.9,1.35-8.04v-17.8c0-1.87.03-3.5.08-4.89.05-1.4.12-2.6.2-3.63.08-1.02.18-1.87.3-2.55.12-.68.25-1.25.38-1.71v-.13h-5.87ZM670.96,93.45c-.53.02-1.12.04-1.76.07-.65.02-1.33.04-2.04.05-.71.01-1.39.02-2.03.03-.64.01-1.2.02-1.7.03-.49.01-.85.02-1.07.02h-18.82c-.22,0-.58,0-1.07-.02-.49-.01-1.06-.02-1.7-.03-.64-.01-1.31-.02-2.03-.03-.72,0-1.4-.03-2.04-.05-.65-.02-1.24-.04-1.76-.07-.53-.02-.92-.04-1.19-.07l-.96,5.34c1.38-.4,2.95-.76,4.71-1.09,1.52-.26,3.32-.51,5.4-.74,2.09-.23,4.43-.35,7.02-.35v31.47c0,1.87-.02,3.5-.07,4.89-.04,1.39-.11,2.6-.2,3.61-.09,1.01-.19,1.86-.3,2.54-.11.68-.23,1.25-.36,1.71v.13h7.88v-.13c-.13-.46-.26-1.03-.38-1.71-.12-.68-.22-1.53-.3-2.54-.08-1.01-.14-2.21-.2-3.61-.05-1.4-.08-3.03-.08-4.89v-31.47c2.59,0,4.93.11,7.02.35,2.09.23,3.89.48,5.4.74,1.76.33,3.34.69,4.74,1.09l-.96-5.34c-.26.02-.66.04-1.19.07M447.12,118.32c-.61-.06-1.22-.15-1.81-.28v-21.82c.46-.18,1.14-.34,2.04-.49.9-.15,2.11-.23,3.62-.23s2.8.26,3.92.77c1.12.52,2.05,1.24,2.79,2.17.74.93,1.29,2.07,1.66,3.41.37,1.34.56,2.83.56,4.48,0,2.02-.26,3.78-.79,5.29-.53,1.51-1.27,2.76-2.23,3.77-.95,1.01-2.11,1.76-3.48,2.26-1.36.49-2.87.74-4.52.74-.57,0-1.16-.03-1.78-.08M446.21,93.57c-1.46.21-2.62.31-3.48.31-.55,0-1.08,0-1.6-.02-.52,0-.98-.04-1.4-.08l-1.38-.13v.13c.13.46.26,1.04.38,1.73.12.69.22,1.54.3,2.55.08,1.01.14,2.21.2,3.61.06,1.39.08,3.03.08,4.89v21.45c0,1.89-.03,3.53-.08,4.91-.05,1.38-.12,2.58-.2,3.59-.08,1.01-.18,1.86-.3,2.54-.12.68-.25,1.25-.38,1.71v.13h7.91v-.13c-.13-.46-.26-1.03-.38-1.71-.12-.68-.22-1.53-.3-2.54-.08-1.01-.14-2.21-.2-3.61-.05-1.4-.08-3.03-.08-4.89v-7.41c.64.11,1.27.19,1.9.23.62.04,1.25.07,1.86.07.53,0,1.04-.02,1.55-.05.51-.03,1.01-.07,1.52-.11l11.66,16.44c.48.68.91,1.37,1.27,2.06.36.69.58,1.25.64,1.66h9.52v-.13c-.44-.15-.87-.37-1.29-.64-.42-.27-.85-.63-1.3-1.06-.45-.43-.92-.94-1.42-1.53-.49-.59-1.03-1.3-1.6-2.11l-11.57-16.25c1.27-.57,2.43-1.28,3.46-2.12,1.03-.85,1.92-1.82,2.65-2.92.74-1.1,1.31-2.32,1.71-3.67.41-1.35.61-2.82.61-4.4,0-2.02-.37-3.83-1.1-5.42-.74-1.59-1.76-2.94-3.08-4.04-1.32-1.1-2.87-1.93-4.66-2.5-1.79-.57-3.74-.86-5.85-.86-2.26,0-4.12.1-5.58.31M607.87,119.98v-23.76c.37-.13.85-.25,1.42-.36.48-.09,1.08-.17,1.78-.25.7-.08,1.53-.11,2.47-.11,1.49,0,2.8.28,3.92.84,1.12.56,2.05,1.35,2.78,2.37.73,1.02,1.29,2.26,1.66,3.72.37,1.46.56,3.08.56,4.86,0,2.57-.36,4.75-1.07,6.53-.71,1.78-1.71,3.19-3,4.24-1.29,1.04-2.82,1.72-4.61,2.04-.8.14-1.63.21-2.51.21-1.08,0-2.22-.11-3.41-.33M608.78,93.57c-1.46.21-2.62.31-3.48.31-.55,0-1.08,0-1.6-.02-.52,0-.98-.04-1.4-.08-.48-.04-.94-.09-1.38-.13v.13c.13.46.26,1.03.38,1.71.12.68.23,1.53.31,2.55.09,1.02.15,2.23.2,3.63.04,1.39.07,3.03.07,4.89v21.45c0,1.87-.02,3.5-.07,4.89-.04,1.39-.11,2.6-.2,3.61-.09,1.01-.19,1.86-.31,2.54-.12.68-.25,1.25-.38,1.71v.13h7.91v-.13c-.13-.46-.26-1.03-.38-1.71-.12-.68-.22-1.53-.3-2.54-.08-1.01-.14-2.21-.2-3.61-.05-1.4-.08-3.03-.08-4.89v-5.47c2.79.42,5.46.39,8.01-.08,2.55-.47,4.8-1.37,6.75-2.69,1.96-1.32,3.52-3.04,4.68-5.17,1.16-2.13,1.75-4.66,1.75-7.58,0-2.18-.37-4.11-1.1-5.82-.74-1.7-1.76-3.15-3.08-4.33-1.32-1.19-2.87-2.09-4.66-2.7-1.79-.61-3.74-.92-5.85-.92-2.26,0-4.12.1-5.58.31M407.25,93.8c-2.34.63-4.48,1.5-6.43,2.62-1.94,1.12-3.67,2.44-5.19,3.97-1.52,1.53-2.79,3.2-3.82,5.03-1.03,1.82-1.82,3.75-2.36,5.77-.54,2.02-.81,4.08-.81,6.16,0,3.69.68,7.05,2.03,10.07,1.35,3.02,3.24,5.61,5.67,7.76,2.43,2.15,5.33,3.82,8.7,4.99,3.37,1.18,7.09,1.76,11.15,1.76,2.02,0,4.03-.17,6.01-.51,1.99-.34,3.81-.83,5.45-1.47l2.64-6.72-.36-.23c-.83.94-1.76,1.78-2.78,2.52-1.02.74-2.11,1.36-3.26,1.88-1.15.51-2.36.91-3.61,1.17-1.25.26-2.51.4-3.76.4-3.47,0-6.51-.61-9.11-1.83-2.6-1.22-4.77-2.89-6.51-5.03-1.74-2.13-3.04-4.65-3.92-7.56-.88-2.91-1.32-6.05-1.32-9.41,0-3.05.46-5.78,1.38-8.17.92-2.39,2.21-4.41,3.87-6.06,1.66-1.65,3.64-2.9,5.95-3.77,2.31-.87,4.84-1.3,7.61-1.3s5.52.47,7.93,1.42c2.41.94,4.46,2.21,6.18,3.79l.3-.13-2.24-6.1c-3.62-1.3-7.56-1.95-11.8-1.95-2.72,0-5.26.31-7.6.94M715.15,137.13c-2.31-1.22-4.23-2.89-5.77-5.03-1.54-2.13-2.69-4.65-3.46-7.56s-1.15-6.05-1.15-9.41c0-3.05.41-5.78,1.22-8.17.81-2.39,1.95-4.41,3.41-6.06,1.46-1.65,3.2-2.9,5.22-3.77,2.02-.87,4.25-1.3,6.69-1.3,3.05,0,5.73.6,8.02,1.79,2.3,1.2,4.21,2.86,5.75,4.98,1.54,2.12,2.7,4.62,3.48,7.51.78,2.89,1.17,6.03,1.17,9.41,0,3.05-.41,5.78-1.22,8.19-.81,2.41-1.95,4.44-3.41,6.11-1.46,1.67-3.2,2.94-5.22,3.82-2.02.88-4.25,1.32-6.69,1.32-3.05,0-5.73-.61-8.04-1.83M714.47,93.8c-2.12.63-4.05,1.5-5.8,2.62-1.75,1.12-3.3,2.44-4.65,3.97-1.35,1.53-2.49,3.2-3.43,5.03-.93,1.82-1.64,3.75-2.12,5.77-.48,2.02-.72,4.08-.72,6.16,0,3.69.64,7.05,1.91,10.07,1.27,3.02,3.04,5.61,5.31,7.76,2.26,2.15,4.95,3.82,8.06,4.99,3.11,1.18,6.5,1.76,10.16,1.76,2.44,0,4.71-.31,6.82-.94,2.11-.63,4.04-1.49,5.78-2.6,1.75-1.11,3.3-2.43,4.66-3.96,1.36-1.53,2.51-3.19,3.44-4.99.93-1.8,1.64-3.71,2.13-5.73.48-2.02.72-4.07.72-6.16,0-3.67-.64-7.02-1.91-10.05-1.27-3.03-3.04-5.63-5.3-7.79-2.26-2.16-4.95-3.84-8.06-5.04-3.11-1.2-6.5-1.8-10.17-1.8-2.44,0-4.72.31-6.84.94M364.71,93.58c-1.41.53-2.66,1.28-3.77,2.27-1.11.99-2,2.18-2.67,3.58-.67,1.39-1.01,2.96-1.01,4.7s.25,3.16.76,4.53c.5,1.37,1.17,2.66,1.99,3.86.82,1.2,1.76,2.32,2.8,3.38,1.04,1.05,2.11,2.08,3.21,3.08,1.1,1,2.17,1.99,3.21,2.98,1.04.99,1.98,2.01,2.8,3.06.82,1.05,1.49,2.17,1.99,3.34.51,1.18.76,2.46.76,3.84,0,.99-.17,1.9-.51,2.74-.34.84-.83,1.56-1.47,2.16-.64.6-1.4,1.08-2.29,1.42-.89.34-1.9.51-3.01.51-1.23,0-2.36-.21-3.4-.64-1.03-.43-1.95-1-2.75-1.71-.8-.71-1.48-1.54-2.03-2.47-.55-.93-.95-1.92-1.19-2.95h-.82l-.76,7.28c.48.33,1.1.69,1.86,1.09.76.4,1.62.76,2.57,1.11.96.34,2,.62,3.13.86,1.13.23,2.32.35,3.58.35,2.24,0,4.17-.36,5.8-1.07,1.63-.71,2.95-1.64,3.99-2.78,1.03-1.14,1.8-2.43,2.29-3.87.49-1.44.74-2.87.74-4.3,0-1.91-.44-3.7-1.33-5.36-.89-1.66-2.01-3.25-3.35-4.76s-2.79-2.98-4.35-4.38c-1.56-1.41-3.01-2.81-4.35-4.22-1.34-1.41-2.46-2.83-3.35-4.27-.89-1.44-1.33-2.95-1.33-4.53,0-.99.14-1.89.43-2.7.29-.81.71-1.52,1.27-2.11.56-.59,1.26-1.05,2.09-1.39.84-.33,1.79-.49,2.87-.49,1.21,0,2.26.19,3.15.56.89.37,1.65.84,2.27,1.4.62.56,1.13,1.16,1.51,1.8.39.64.67,1.21.84,1.71h.73l.23-6.16c-.35-.15-.8-.35-1.35-.59-.55-.24-1.19-.48-1.93-.72-.74-.24-1.57-.45-2.49-.63-.92-.17-1.93-.26-3.03-.26-1.49,0-2.94.26-4.35.79M812.91,93.58c-1.41.53-2.66,1.28-3.77,2.27-1.11.99-2,2.18-2.67,3.58-.67,1.39-1,2.96-1,4.7s.25,3.16.76,4.53c.51,1.37,1.17,2.66,1.99,3.86.82,1.2,1.76,2.32,2.8,3.38,1.04,1.05,2.11,2.08,3.21,3.08,1.1,1,2.17,1.99,3.21,2.98,1.04.99,1.98,2.01,2.8,3.06.82,1.05,1.49,2.17,1.99,3.34.51,1.18.76,2.46.76,3.84,0,.99-.17,1.9-.51,2.74-.34.84-.83,1.56-1.47,2.16-.64.6-1.4,1.08-2.29,1.42-.89.34-1.89.51-3.02.51-1.23,0-2.36-.21-3.4-.64-1.03-.43-1.95-1-2.75-1.71-.8-.71-1.48-1.54-2.03-2.47-.55-.93-.94-1.92-1.19-2.95h-.82l-.76,7.28c.48.33,1.1.69,1.86,1.09.76.4,1.61.76,2.57,1.11.96.34,2,.62,3.13.86,1.13.23,2.32.35,3.58.35,2.24,0,4.17-.36,5.8-1.07,1.62-.71,2.95-1.64,3.99-2.78,1.03-1.14,1.8-2.43,2.29-3.87.49-1.44.74-2.87.74-4.3,0-1.91-.45-3.7-1.33-5.36-.89-1.66-2-3.25-3.34-4.76-1.34-1.52-2.79-2.98-4.35-4.38-1.56-1.41-3.01-2.81-4.35-4.22-1.34-1.41-2.46-2.83-3.34-4.27-.89-1.44-1.34-2.95-1.34-4.53,0-.99.14-1.89.43-2.7.28-.81.71-1.52,1.27-2.11.56-.59,1.26-1.05,2.09-1.39.84-.33,1.79-.49,2.87-.49,1.21,0,2.26.19,3.15.56.89.37,1.65.84,2.27,1.4.63.56,1.13,1.16,1.52,1.8.38.64.66,1.21.84,1.71h.72l.23-6.16c-.35-.15-.8-.35-1.35-.59-.55-.24-1.19-.48-1.93-.72-.74-.24-1.57-.45-2.49-.63-.92-.17-1.93-.26-3.03-.26-1.49,0-2.95.26-4.35.79"/></clipPath><linearGradient id="linear-gradient-4" x1="0" y1="241" x2="1" y2="241" gradientTransform="translate(356.57 113906.85) scale(472.16 -472.16)" xlink:href="#linear-gradient"/></defs><g id="Layer_1-2"><g class="cls-1"><rect class="cls-4" width="907.09" height="240.95"/><g class="cls-9"><path class="cls-8" d="M828.19,175.31c0-.67.01-1.26.03-1.78.02-.51.05-.96.09-1.34.04-.38.09-.71.14-.99.05-.28.11-.52.17-.72v-.06h-3.51v.06c.07.22.13.47.18.73.05.26.09.58.13.94s.07.8.09,1.29c.02.5.03,1.09.03,1.77v.57c0,.16-.09.33-.28.52s-.47.36-.84.53c-.37.16-.82.29-1.36.4-.54.11-1.14.16-1.83.16-1.54,0-2.89-.26-4.04-.8-1.15-.53-2.12-1.26-2.89-2.2-.77-.94-1.35-2.04-1.74-3.32-.39-1.28-.59-2.66-.59-4.15,0-1.35.21-2.56.61-3.62.41-1.06.98-1.96,1.72-2.69.74-.73,1.61-1.29,2.64-1.67s2.15-.58,3.38-.58c.63,0,1.26.06,1.88.18.62.12,1.21.29,1.78.5.56.21,1.1.47,1.59.76.5.29.93.61,1.32.95l.12-.06-.99-2.7c-.4-.15-.82-.28-1.26-.39-.44-.12-.9-.22-1.38-.3-.48-.08-.96-.15-1.45-.19-.49-.04-.96-.07-1.43-.07-1.21,0-2.33.14-3.37.42-1.04.28-1.99.67-2.85,1.16-.86.5-1.63,1.08-2.3,1.76-.67.68-1.24,1.42-1.7,2.23-.46.81-.81,1.66-1.04,2.56-.24.9-.36,1.81-.36,2.73,0,1.64.29,3.12.86,4.46.58,1.34,1.39,2.49,2.43,3.44,1.05.95,2.3,1.69,3.76,2.21,1.46.52,3.08.78,4.85.78.79,0,1.53-.06,2.21-.17.69-.11,1.33-.27,1.92-.47.59-.21,1.15-.45,1.66-.72.51-.28.99-.58,1.42-.91.09-.08.14-.17.17-.29.02-.12.04-.23.04-.34v-.6ZM780.04,157.41v.06c.06.2.11.46.17.76.05.3.1.68.14,1.13.04.45.07.99.09,1.61.02.62.03,1.34.03,2.17v9.51c0,.83-.01,1.55-.03,2.17-.02.62-.05,1.15-.09,1.6-.04.45-.08.82-.14,1.12-.05.3-.11.56-.17.76v.06h2.6v-.06c-.06-.2-.11-.46-.16-.76-.05-.3-.09-.68-.13-1.12-.04-.45-.07-.98-.09-1.6-.02-.62-.03-1.34-.03-2.17v-9.99l15.05,16h.51v-15.52c0-.83,0-1.55.03-2.17.02-.62.05-1.15.09-1.61.04-.45.08-.83.13-1.13.05-.3.1-.56.16-.76v-.06h-2.6v.06c.06.2.11.46.17.76.05.3.1.68.14,1.13.04.45.07.99.09,1.61.02.62.03,1.34.03,2.17v10.29l-15.05-16.01h-.94ZM764.88,178.36h3.49v-.06c-.06-.2-.11-.46-.17-.76-.05-.3-.1-.68-.13-1.12-.03-.45-.06-.98-.09-1.6-.02-.62-.04-1.34-.04-2.17v-9.51c0-.83.01-1.55.04-2.17.03-.62.05-1.15.09-1.61.03-.45.08-.83.13-1.13.05-.3.11-.56.17-.76v-.06h-3.49v.06c.06.2.11.46.16.76.05.3.09.68.13,1.13.04.45.07.99.09,1.61.02.62.03,1.34.03,2.17v9.51c0,.83-.01,1.55-.03,2.17-.02.62-.05,1.15-.09,1.6-.04.45-.08.82-.13,1.12-.05.3-.1.56-.16.76v.06ZM734.88,157.41v.06c.05.06.14.19.28.41.14.21.29.48.47.8.18.32.36.67.56,1.06.2.39.39.79.58,1.21l7.93,17.87h1.17l8.37-18.59c.31-.7.6-1.29.86-1.77.26-.48.49-.81.67-.99v-.06h-2.99v.06s.04.1.06.18c.02.08.03.18.03.3,0,.44-.08.87-.25,1.3-.17.43-.32.82-.47,1.18l-6.25,14.48-6.47-14.6c-.23-.55-.39-1-.47-1.37-.08-.37-.12-.7-.12-1,0-.08,0-.17.01-.26,0-.1.02-.17.04-.22v-.06h-4ZM722.28,178.36h3.49v-.06c-.06-.2-.11-.46-.17-.76-.05-.3-.1-.68-.13-1.12-.04-.45-.06-.98-.09-1.6-.02-.62-.04-1.34-.04-2.17v-9.51c0-.83.01-1.55.04-2.17.02-.62.05-1.15.09-1.61.03-.45.08-.83.13-1.13.05-.3.11-.56.17-.76v-.06h-3.49v.06c.06.2.11.46.16.76.05.3.09.68.13,1.13.04.45.07.99.09,1.61.02.62.03,1.34.03,2.17v9.51c0,.83,0,1.55-.03,2.17-.02.62-.05,1.15-.09,1.6-.04.45-.08.82-.13,1.12-.05.3-.1.56-.16.76v.06ZM703.99,163.14c0-.83.01-1.55.04-2.17.03-.62.05-1.15.09-1.61.03-.45.08-.83.13-1.13.05-.3.11-.56.17-.76v-.06h-3.51v.06c.06.2.11.46.17.76.05.3.1.68.14,1.13.04.45.07.99.09,1.61.02.62.03,1.34.03,2.17v9.51c0,.83,0,1.55-.03,2.17-.02.62-.05,1.15-.09,1.6-.04.45-.09.82-.14,1.12-.05.3-.11.56-.17.76v.06h6.31c.1,0,.26,0,.48,0s.47,0,.75.01c.28,0,.58,0,.9.01.32,0,.62.01.91.02.29.01.55.02.78.03.23.01.41.02.53.03l.42-2.37c-.69.18-1.46.35-2.29.48-.72.13-1.56.24-2.53.34-.96.1-2.02.15-3.17.15v-13.94Z"/></g><g class="cls-12"><rect class="cls-3" x="98.12" y="70.82" width="215.05" height="77.79"/></g><g class="cls-11"><rect class="cls-6" x="47.06" y="74.41" width="54.34" height="17.09"/></g><g class="cls-10"><rect class="cls-7" x="301.1" y="107.47" width="38.66" height="20.56"/></g><g class="cls-13"><rect class="cls-5" x="356.57" y="92.79" width="472.16" height="49.13"/></g></g></g></svg>